<mxfile host="Electron" modified="2023-08-28T12:51:46.304Z" agent="Mozilla/5.0 (Macintosh; Intel Mac OS X 10_15_7) AppleWebKit/537.36 (KHTML, like Gecko) draw.io/21.2.8 Chrome/112.0.5615.165 Electron/24.2.0 Safari/537.36" etag="8cHWIelCZim0DyV39HJN" version="21.2.8" type="device">
  <diagram name="Page-1" id="PIuu7946lPg5kw2vCJBV">
    <mxGraphModel dx="1026" dy="687" grid="1" gridSize="10" guides="1" tooltips="1" connect="1" arrows="1" fold="1" page="1" pageScale="1" pageWidth="850" pageHeight="1100" math="0" shadow="0">
      <root>
        <mxCell id="0" />
        <mxCell id="1" parent="0" />
        <mxCell id="wz_JJlgSjnMHxndVcrpG-1" value="Subject" style="swimlane;fontStyle=3;childLayout=stackLayout;horizontal=1;startSize=30;fillColor=none;horizontalStack=0;resizeParent=1;resizeParentMax=0;resizeLast=0;collapsible=0;marginBottom=0;fontSize=12;swimlaneHead=1;swimlaneBody=1;connectable=1;allowArrows=1;dropTarget=1;align=left;spacingLeft=5;" vertex="1" parent="1">
          <mxGeometry x="100" y="220" width="122" height="120" as="geometry">
            <mxRectangle x="245" y="370" width="90" height="26" as="alternateBounds" />
          </mxGeometry>
        </mxCell>
        <mxCell id="wz_JJlgSjnMHxndVcrpG-2" value="Attach(Observer)" style="text;strokeColor=none;fillColor=none;align=left;verticalAlign=middle;spacingLeft=5;spacingRight=4;overflow=hidden;rotatable=0;points=[[0,0.5],[1,0.5]];portConstraint=eastwest;fontSize=12;fontStyle=0;connectable=0;" vertex="1" parent="wz_JJlgSjnMHxndVcrpG-1">
          <mxGeometry y="30" width="122" height="30" as="geometry" />
        </mxCell>
        <mxCell id="wz_JJlgSjnMHxndVcrpG-3" value="Detach(Observer)" style="text;strokeColor=none;fillColor=none;align=left;verticalAlign=middle;spacingLeft=5;spacingRight=4;overflow=hidden;rotatable=0;points=[[0,0.5],[1,0.5]];portConstraint=eastwest;fontSize=12;fontStyle=0;connectable=0;" vertex="1" parent="wz_JJlgSjnMHxndVcrpG-1">
          <mxGeometry y="60" width="122" height="30" as="geometry" />
        </mxCell>
        <mxCell id="wz_JJlgSjnMHxndVcrpG-4" value="Notify()" style="text;strokeColor=none;fillColor=none;align=left;verticalAlign=middle;spacingLeft=5;spacingRight=4;overflow=hidden;rotatable=0;points=[[0,0.5],[1,0.5]];portConstraint=eastwest;fontSize=12;fontStyle=0;connectable=0;" vertex="1" parent="wz_JJlgSjnMHxndVcrpG-1">
          <mxGeometry y="90" width="122" height="30" as="geometry" />
        </mxCell>
        <mxCell id="wz_JJlgSjnMHxndVcrpG-13" value="&lt;span style=&quot;font-weight: 700;&quot;&gt;ConcreteSubject&lt;/span&gt;" style="swimlane;fontStyle=0;align=left;verticalAlign=top;childLayout=stackLayout;horizontal=1;startSize=30;horizontalStack=0;resizeParent=1;resizeParentMax=0;resizeLast=0;collapsible=0;marginBottom=0;html=1;spacingLeft=5;" vertex="1" parent="1">
          <mxGeometry x="81.5" y="410" width="159" height="121" as="geometry" />
        </mxCell>
        <mxCell id="wz_JJlgSjnMHxndVcrpG-14" value="GetState()" style="text;strokeColor=none;fillColor=none;align=left;verticalAlign=middle;spacingLeft=5;spacingRight=4;overflow=hidden;rotatable=0;points=[[0,0.5],[1,0.5]];portConstraint=eastwest;fontSize=12;fontStyle=0;connectable=0;allowArrows=0;" vertex="1" parent="wz_JJlgSjnMHxndVcrpG-13">
          <mxGeometry y="30" width="159" height="30" as="geometry" />
        </mxCell>
        <mxCell id="wz_JJlgSjnMHxndVcrpG-21" value="SetState()" style="text;strokeColor=none;fillColor=none;align=left;verticalAlign=middle;spacingLeft=5;spacingRight=4;overflow=hidden;rotatable=0;points=[[0,0.5],[1,0.5]];portConstraint=eastwest;fontSize=12;fontStyle=0;connectable=1;allowArrows=0;" vertex="1" parent="wz_JJlgSjnMHxndVcrpG-13">
          <mxGeometry y="60" width="159" height="30" as="geometry" />
        </mxCell>
        <mxCell id="wz_JJlgSjnMHxndVcrpG-15" value="" style="line;strokeWidth=1;fillColor=none;align=left;verticalAlign=middle;spacingTop=-1;spacingLeft=3;spacingRight=3;rotatable=0;labelPosition=right;points=[];portConstraint=eastwest;" vertex="1" parent="wz_JJlgSjnMHxndVcrpG-13">
          <mxGeometry y="90" width="159" height="1" as="geometry" />
        </mxCell>
        <mxCell id="wz_JJlgSjnMHxndVcrpG-16" value="subjectState" style="text;strokeColor=none;fillColor=none;align=left;verticalAlign=middle;spacingLeft=5;spacingRight=4;overflow=hidden;rotatable=0;points=[[0,0.5],[1,0.5]];portConstraint=eastwest;fontSize=12;fontStyle=0;connectable=1;allowArrows=0;" vertex="1" parent="wz_JJlgSjnMHxndVcrpG-13">
          <mxGeometry y="91" width="159" height="30" as="geometry" />
        </mxCell>
        <mxCell id="wz_JJlgSjnMHxndVcrpG-22" value="Observer" style="swimlane;fontStyle=3;childLayout=stackLayout;horizontal=1;startSize=30;fillColor=none;horizontalStack=0;resizeParent=1;resizeParentMax=0;resizeLast=0;collapsible=0;marginBottom=0;fontSize=12;swimlaneHead=1;swimlaneBody=1;connectable=1;allowArrows=1;dropTarget=1;align=left;spacingLeft=5;" vertex="1" parent="1">
          <mxGeometry x="460" y="217" width="122" height="60" as="geometry">
            <mxRectangle x="245" y="370" width="90" height="26" as="alternateBounds" />
          </mxGeometry>
        </mxCell>
        <mxCell id="wz_JJlgSjnMHxndVcrpG-23" value="Update()" style="text;strokeColor=none;fillColor=none;align=left;verticalAlign=middle;spacingLeft=5;spacingRight=4;overflow=hidden;rotatable=0;points=[[0,0.5],[1,0.5]];portConstraint=eastwest;fontSize=12;fontStyle=0;connectable=0;" vertex="1" parent="wz_JJlgSjnMHxndVcrpG-22">
          <mxGeometry y="30" width="122" height="30" as="geometry" />
        </mxCell>
        <mxCell id="wz_JJlgSjnMHxndVcrpG-26" value="&lt;span style=&quot;font-weight: 700;&quot;&gt;ConcreteObserver&lt;/span&gt;" style="swimlane;fontStyle=0;align=left;verticalAlign=top;childLayout=stackLayout;horizontal=1;startSize=30;horizontalStack=0;resizeParent=1;resizeParentMax=0;resizeLast=0;collapsible=0;marginBottom=0;html=1;spacingLeft=5;" vertex="1" parent="1">
          <mxGeometry x="441.5" y="410" width="159" height="91" as="geometry" />
        </mxCell>
        <mxCell id="wz_JJlgSjnMHxndVcrpG-27" value="Update()" style="text;strokeColor=none;fillColor=none;align=left;verticalAlign=middle;spacingLeft=5;spacingRight=4;overflow=hidden;rotatable=0;points=[[0,0.5],[1,0.5]];portConstraint=eastwest;fontSize=12;fontStyle=0;connectable=0;allowArrows=0;" vertex="1" parent="wz_JJlgSjnMHxndVcrpG-26">
          <mxGeometry y="30" width="159" height="30" as="geometry" />
        </mxCell>
        <mxCell id="wz_JJlgSjnMHxndVcrpG-29" value="" style="line;strokeWidth=1;fillColor=none;align=left;verticalAlign=middle;spacingTop=-1;spacingLeft=3;spacingRight=3;rotatable=0;labelPosition=right;points=[];portConstraint=eastwest;" vertex="1" parent="wz_JJlgSjnMHxndVcrpG-26">
          <mxGeometry y="60" width="159" height="1" as="geometry" />
        </mxCell>
        <mxCell id="wz_JJlgSjnMHxndVcrpG-30" value="observeState" style="text;strokeColor=none;fillColor=none;align=left;verticalAlign=middle;spacingLeft=5;spacingRight=4;overflow=hidden;rotatable=0;points=[[0,0.5],[1,0.5]];portConstraint=eastwest;fontSize=12;fontStyle=0;connectable=1;allowArrows=0;" vertex="1" parent="wz_JJlgSjnMHxndVcrpG-26">
          <mxGeometry y="61" width="159" height="30" as="geometry" />
        </mxCell>
        <mxCell id="wz_JJlgSjnMHxndVcrpG-31" value="" style="html=1;verticalAlign=bottom;labelBackgroundColor=none;endArrow=oval;endFill=0;endSize=8;rounded=0;fontSize=12;exitX=0;exitY=0.5;exitDx=0;exitDy=0;exitPerimeter=0;anchorPointDirection=0;dashed=1;" edge="1" source="wz_JJlgSjnMHxndVcrpG-32" parent="1">
          <mxGeometry width="160" relative="1" as="geometry">
            <mxPoint x="459" y="250.5" as="sourcePoint" />
            <mxPoint x="170" y="325.5" as="targetPoint" />
          </mxGeometry>
        </mxCell>
        <mxCell id="wz_JJlgSjnMHxndVcrpG-32" value="for all o in observers {&lt;br&gt;&amp;nbsp; o-&amp;gt;Update()&lt;br&gt;}" style="shape=note2;boundedLbl=1;whiteSpace=wrap;html=1;size=25;verticalAlign=middle;align=left;spacingLeft=5;fontSize=12;startSize=30;fillColor=none;" vertex="1" parent="1">
          <mxGeometry x="232" y="296" width="168" height="59" as="geometry" />
        </mxCell>
        <mxCell id="wz_JJlgSjnMHxndVcrpG-33" value="" style="html=1;verticalAlign=bottom;labelBackgroundColor=none;endArrow=oval;endFill=0;endSize=8;rounded=0;fontSize=12;exitX=0;exitY=0.5;exitDx=0;exitDy=0;exitPerimeter=0;anchorPointDirection=0;dashed=1;" edge="1" parent="1" source="wz_JJlgSjnMHxndVcrpG-34">
          <mxGeometry width="160" relative="1" as="geometry">
            <mxPoint x="479" y="380.5" as="sourcePoint" />
            <mxPoint x="190" y="455.5" as="targetPoint" />
          </mxGeometry>
        </mxCell>
        <mxCell id="wz_JJlgSjnMHxndVcrpG-34" value="return subjectState" style="shape=note2;boundedLbl=1;whiteSpace=wrap;html=1;size=25;verticalAlign=middle;align=left;spacingLeft=5;fontSize=12;startSize=30;fillColor=none;" vertex="1" parent="1">
          <mxGeometry x="250" y="438.5" width="168" height="34" as="geometry" />
        </mxCell>
        <mxCell id="wz_JJlgSjnMHxndVcrpG-35" value="" style="html=1;verticalAlign=bottom;labelBackgroundColor=none;endArrow=oval;endFill=0;endSize=8;rounded=0;fontSize=12;exitX=0;exitY=0.5;exitDx=0;exitDy=0;exitPerimeter=0;anchorPointDirection=0;dashed=1;" edge="1" parent="1" source="wz_JJlgSjnMHxndVcrpG-36">
          <mxGeometry width="160" relative="1" as="geometry">
            <mxPoint x="839" y="380.5" as="sourcePoint" />
            <mxPoint x="550" y="455.5" as="targetPoint" />
          </mxGeometry>
        </mxCell>
        <mxCell id="wz_JJlgSjnMHxndVcrpG-36" value="observerState =&amp;nbsp;&lt;br&gt;&amp;nbsp; subject-&amp;gt;GetState()" style="shape=note2;boundedLbl=1;whiteSpace=wrap;html=1;size=25;verticalAlign=middle;align=left;spacingLeft=5;fontSize=12;startSize=30;fillColor=none;" vertex="1" parent="1">
          <mxGeometry x="612" y="426" width="168" height="59" as="geometry" />
        </mxCell>
        <mxCell id="wz_JJlgSjnMHxndVcrpG-37" value="" style="endArrow=blockThin;html=1;rounded=0;endFill=1;exitX=1.008;exitY=0.1;exitDx=0;exitDy=0;exitPerimeter=0;entryX=0;entryY=0.25;entryDx=0;entryDy=0;" edge="1" parent="1" source="wz_JJlgSjnMHxndVcrpG-1" target="wz_JJlgSjnMHxndVcrpG-22">
          <mxGeometry width="50" height="50" relative="1" as="geometry">
            <mxPoint x="240" y="180" as="sourcePoint" />
            <mxPoint x="340" y="200" as="targetPoint" />
          </mxGeometry>
        </mxCell>
        <mxCell id="wz_JJlgSjnMHxndVcrpG-38" value="observers" style="edgeLabel;html=1;align=center;verticalAlign=middle;resizable=0;points=[];" vertex="1" connectable="0" parent="wz_JJlgSjnMHxndVcrpG-37">
          <mxGeometry x="-0.7635" relative="1" as="geometry">
            <mxPoint x="-1" y="-9" as="offset" />
          </mxGeometry>
        </mxCell>
        <mxCell id="wz_JJlgSjnMHxndVcrpG-39" value="" style="endArrow=blockThin;html=1;rounded=0;endFill=1;exitX=0.003;exitY=0.143;exitDx=0;exitDy=0;exitPerimeter=0;entryX=1.003;entryY=0.107;entryDx=0;entryDy=0;entryPerimeter=0;" edge="1" parent="1" source="wz_JJlgSjnMHxndVcrpG-26" target="wz_JJlgSjnMHxndVcrpG-13">
          <mxGeometry width="50" height="50" relative="1" as="geometry">
            <mxPoint x="233" y="242" as="sourcePoint" />
            <mxPoint x="470" y="242" as="targetPoint" />
          </mxGeometry>
        </mxCell>
        <mxCell id="wz_JJlgSjnMHxndVcrpG-40" value="subject" style="edgeLabel;html=1;align=center;verticalAlign=middle;resizable=0;points=[];" vertex="1" connectable="0" parent="wz_JJlgSjnMHxndVcrpG-39">
          <mxGeometry x="-0.7635" relative="1" as="geometry">
            <mxPoint y="-9" as="offset" />
          </mxGeometry>
        </mxCell>
        <mxCell id="wz_JJlgSjnMHxndVcrpG-41" value="" style="edgeStyle=orthogonalEdgeStyle;rounded=0;orthogonalLoop=1;jettySize=auto;html=1;fontSize=12;startSize=30;endArrow=block;endFill=0;exitX=0.5;exitY=0;exitDx=0;exitDy=0;entryX=0.5;entryY=1;entryDx=0;entryDy=0;" edge="1" parent="1" source="wz_JJlgSjnMHxndVcrpG-13" target="wz_JJlgSjnMHxndVcrpG-1">
          <mxGeometry relative="1" as="geometry">
            <mxPoint x="40" y="404" as="sourcePoint" />
            <mxPoint x="40" y="370" as="targetPoint" />
          </mxGeometry>
        </mxCell>
        <mxCell id="wz_JJlgSjnMHxndVcrpG-42" value="" style="edgeStyle=orthogonalEdgeStyle;rounded=0;orthogonalLoop=1;jettySize=auto;html=1;fontSize=12;startSize=30;endArrow=block;endFill=0;entryX=0.5;entryY=1;entryDx=0;entryDy=0;exitX=0.5;exitY=0;exitDx=0;exitDy=0;" edge="1" parent="1" source="wz_JJlgSjnMHxndVcrpG-26" target="wz_JJlgSjnMHxndVcrpG-22">
          <mxGeometry relative="1" as="geometry">
            <mxPoint x="550" y="390" as="sourcePoint" />
            <mxPoint x="171" y="350" as="targetPoint" />
          </mxGeometry>
        </mxCell>
      </root>
    </mxGraphModel>
  </diagram>
</mxfile>
